<?xml version="1.0" encoding="UTF-8" standalone="no"?>
<svg
   inkscape:export-ydpi="29.988564"
   inkscape:export-xdpi="29.988564"
   inkscape:export-filename="/Users/mmi041/work/projects/sam/msca_tromso_2023/figures/puzzle_dim.png"
   inkscape:version="1.4 (86a8ad7, 2024-10-11)"
   sodipodi:docname="puzzle_dim_final.svg"
   viewBox="0 0 3985.3601 3985.3601"
   height="3985.3601"
   width="3985.3601"
   xml:space="preserve"
   id="svg833"
   version="1.1"
   xmlns:inkscape="http://www.inkscape.org/namespaces/inkscape"
   xmlns:sodipodi="http://sodipodi.sourceforge.net/DTD/sodipodi-0.dtd"
   xmlns="http://www.w3.org/2000/svg"
   xmlns:svg="http://www.w3.org/2000/svg"
   xmlns:rdf="http://www.w3.org/1999/02/22-rdf-syntax-ns#"
   xmlns:cc="http://creativecommons.org/ns#"
   xmlns:dc="http://purl.org/dc/elements/1.1/"><metadata
     id="metadata839"><rdf:RDF><cc:Work
         rdf:about=""><dc:format>image/svg+xml</dc:format><dc:type
           rdf:resource="http://purl.org/dc/dcmitype/StillImage" /></cc:Work></rdf:RDF></metadata><defs
     id="defs837"><marker
       inkscape:stockid="Arrow1Mstart"
       orient="auto"
       refY="0.0"
       refX="0.0"
       id="marker1326"
       style="overflow:visible"
       inkscape:isstock="true"><path
         id="path1324"
         d="M 0.0,0.0 L 5.0,-5.0 L -12.5,0.0 L 5.0,5.0 L 0.0,0.0 z "
         style="fill-rule:evenodd;stroke:#000000;stroke-width:1pt;stroke-opacity:1;fill:#000000;fill-opacity:1"
         transform="scale(0.4) translate(10,0)" /></marker><marker
       inkscape:collect="always"
       inkscape:isstock="true"
       style="overflow:visible"
       id="Arrow1Mstart"
       refX="0.0"
       refY="0.0"
       orient="auto"
       inkscape:stockid="Arrow1Mstart"><path
         transform="scale(0.4) translate(10,0)"
         style="fill-rule:evenodd;stroke:#000000;stroke-width:1pt;stroke-opacity:1;fill:#000000;fill-opacity:1"
         d="M 0.0,0.0 L 5.0,-5.0 L -12.5,0.0 L 5.0,5.0 L 0.0,0.0 z "
         id="path891" /></marker><marker
       inkscape:isstock="true"
       style="overflow:visible;"
       id="Arrow1Mend"
       refX="0.0"
       refY="0.0"
       orient="auto"
       inkscape:stockid="Arrow1Mend"><path
         transform="scale(0.4) rotate(180) translate(10,0)"
         style="fill-rule:evenodd;stroke:#000000;stroke-width:1pt;stroke-opacity:1;fill:#000000;fill-opacity:1"
         d="M 0.0,0.0 L 5.0,-5.0 L -12.5,0.0 L 5.0,5.0 L 0.0,0.0 z "
         id="path894" /></marker><marker
       inkscape:stockid="Arrow1Mend"
       orient="auto"
       refY="0"
       refX="0"
       id="Arrow1Mend-3"
       style="overflow:visible"
       inkscape:isstock="true"><path
         inkscape:connector-curvature="0"
         id="path894-8"
         d="M 0,0 5,-5 -12.5,0 5,5 Z"
         style="fill:#000000;fill-opacity:1;fill-rule:evenodd;stroke:#000000;stroke-width:1pt;stroke-opacity:1"
         transform="matrix(-0.4,0,0,-0.4,-4,0)" /></marker></defs><sodipodi:namedview
     inkscape:current-layer="g843"
     inkscape:window-maximized="0"
     inkscape:window-y="0"
     inkscape:window-x="0"
     inkscape:cy="2183.3333"
     inkscape:cx="1097.2222"
     inkscape:zoom="0.18"
     showgrid="false"
     id="namedview835"
     inkscape:window-height="1024"
     inkscape:window-width="1792"
     inkscape:pageshadow="2"
     inkscape:pageopacity="0"
     guidetolerance="10"
     gridtolerance="10"
     objecttolerance="10"
     borderopacity="1"
     bordercolor="#666666"
     pagecolor="#ffffff"
     inkscape:showpageshadow="2"
     inkscape:pagecheckerboard="0"
     inkscape:deskcolor="#d1d1d1" /><g
     transform="matrix(1.3333333,0,0,-1.3333333,0,3985.36)"
     inkscape:label="ink_ext_XXXXXX"
     inkscape:groupmode="layer"
     id="g841"><g
       transform="scale(0.1)"
       id="g843"><g
         transform="scale(1.59237)"
         id="g849"><path
           inkscape:connector-curvature="0"
           id="path851"
           style="fill:#f5a79c;fill-opacity:1;fill-rule:nonzero;stroke:none"
           d="m 3697.8,16300 c -676.53,0 -1226.93,-550.4 -1226.93,-1226.9 V 9399.25 c 4.13,-1.13 8.28,-2.26 12.4,-3.39 10.45,-2.89 20.84,-5.65 31.24,-8.48 11.7,-3.14 23.38,-6.34 35.01,-9.42 10.46,-2.83 20.85,-5.59 31.25,-8.35 11.43,-3.02 22.86,-6.03 34.23,-9.04 10.4,-2.77 20.74,-5.47 31.08,-8.11 11.24,-2.95 22.48,-5.9 33.65,-8.79 10.29,-2.64 20.52,-5.27 30.76,-7.85 11.1,-2.89 22.19,-5.71 33.24,-8.47 10.17,-2.58 20.3,-5.16 30.41,-7.67 10.93,-2.76 21.85,-5.46 32.7,-8.16 10.08,-2.51 20.1,-4.96 30.11,-7.41 10.78,-2.64 21.54,-5.28 32.25,-7.91 9.99,-2.39 19.92,-4.84 29.85,-7.16 10.56,-2.58 21.1,-5.09 31.59,-7.6 9.94,-2.33 19.84,-4.65 29.72,-6.97 10.37,-2.45 20.73,-4.9 31.03,-7.29 9.83,-2.26 19.62,-4.52 29.39,-6.78 10.19,-2.32 20.36,-4.65 30.48,-6.91 9.78,-2.2 19.51,-4.39 29.22,-6.59 9.98,-2.2 19.93,-4.4 29.84,-6.6 9.7,-2.13 19.36,-4.27 29,-6.34 9.82,-2.13 19.62,-4.27 29.37,-6.34 9.55,-2.07 19.06,-4.08 28.55,-6.09 9.68,-2.07 19.34,-4.08 28.95,-6.1 9.49,-1.94 18.93,-3.89 28.34,-5.83 9.46,-1.95 18.89,-3.9 28.28,-5.78 9.4,-1.89 18.77,-3.77 28.1,-5.59 9.32,-1.89 18.61,-3.71 27.86,-5.53 9.26,-1.82 18.49,-3.58 27.68,-5.34 9.17,-1.76 18.31,-3.51 27.43,-5.21 9.13,-1.76 18.24,-3.45 27.31,-5.15 9.03,-1.69 18.02,-3.33 26.99,-4.96 9.03,-1.63 18.02,-3.26 26.98,-4.83 8.86,-1.57 17.66,-3.14 26.45,-4.65 8.93,-1.57 17.85,-3.14 26.71,-4.65 8.69,-1.51 17.35,-2.95 25.97,-4.39 8.82,-1.51 17.61,-2.96 26.37,-4.4 8.51,-1.38 16.99,-2.76 25.44,-4.08 8.75,-1.38 17.46,-2.77 26.14,-4.15 8.33,-1.32 16.61,-2.57 24.88,-3.83 8.63,-1.32 17.25,-2.57 25.81,-3.89 8.19,-1.19 16.33,-2.39 24.45,-3.52 8.5,-1.25 16.97,-2.45 25.4,-3.64 8.09,-1.13 16.13,-2.2 24.15,-3.33 8.32,-1.13 16.64,-2.26 24.89,-3.33 7.92,-1 15.8,-2.01 23.66,-3.01 8.26,-1.07 16.5,-2.14 24.68,-3.14 7.74,-0.94 15.44,-1.82 23.12,-2.77 8.12,-0.94 16.23,-1.88 24.28,-2.82 7.65,-0.88 15.25,-1.7 22.84,-2.51 7.94,-0.88 15.86,-1.76 23.73,-2.58 7.53,-0.75 15.01,-1.51 22.48,-2.26 7.82,-0.75 15.63,-1.57 23.39,-2.26 7.35,-0.69 14.65,-1.38 21.94,-2.01 7.71,-0.69 15.41,-1.38 23.05,-2.07 7.24,-0.57 14.41,-1.13 21.59,-1.7 7.56,-0.63 15.1,-1.25 22.58,-1.76 7.09,-0.56 14.12,-1 21.15,-1.5 7.44,-0.51 14.88,-1.01 22.24,-1.51 6.95,-0.44 13.84,-0.82 20.73,-1.26 7.29,-0.37 14.58,-0.81 21.79,-1.19 6.84,-0.38 13.61,-0.69 20.38,-1 7.15,-0.32 14.3,-0.63 21.37,-0.95 6.69,-0.25 13.3,-0.5 19.92,-0.69 7.03,-0.25 14.06,-0.5 21.01,-0.69 6.56,-0.19 13.05,-0.31 19.55,-0.5 6.86,-0.13 13.73,-0.31 20.52,-0.38 6.45,-0.12 12.84,-0.19 19.23,-0.25 6.7,-0.06 13.42,-0.12 20.05,-0.12 6.31,0 12.55,0 18.79,0.06 6.59,0 13.19,0 19.7,0.12 6.18,0.07 12.29,0.19 18.4,0.26 6.43,0.12 12.86,0.25 19.21,0.44 6.07,0.12 12.06,0.31 18.06,0.5 6.28,0.25 12.57,0.44 18.78,0.69 5.94,0.25 11.79,0.5 17.67,0.82 6.13,0.31 12.27,0.56 18.32,0.94 5.83,0.31 11.57,0.69 17.33,1.06 5.96,0.38 11.95,0.76 17.85,1.2 5.71,0.37 11.33,0.88 16.98,1.32 5.81,0.5 11.65,0.94 17.39,1.44 5.57,0.5 11.04,1.07 16.54,1.63 5.69,0.57 11.4,1.07 17.01,1.7 5.44,0.56 10.78,1.19 16.15,1.88 5.54,0.63 11.11,1.26 16.58,1.95 5.31,0.69 10.54,1.38 15.79,2.14 5.37,0.75 10.78,1.44 16.08,2.19 5.22,0.82 10.34,1.64 15.49,2.45 5.21,0.82 10.46,1.64 15.6,2.45 5.07,0.88 10.04,1.76 15.06,2.7 5.08,0.88 10.19,1.76 15.2,2.77 4.96,0.94 9.82,1.94 14.7,2.88 4.92,1.01 9.87,2.01 14.72,3.02 4.86,1.07 9.61,2.13 14.4,3.2 4.74,1.07 9.52,2.14 14.19,3.27 4.75,1.13 9.39,2.32 14.08,3.51 4.58,1.13 9.19,2.26 13.71,3.46 4.63,1.25 9.15,2.51 13.71,3.83 4.42,1.19 8.88,2.45 13.24,3.7 4.51,1.32 8.92,2.7 13.36,4.09 4.26,1.31 8.58,2.57 12.78,3.95 4.39,1.38 8.67,2.89 12.99,4.34 4.11,1.44 8.26,2.76 12.31,4.2 4.28,1.51 8.43,3.14 12.64,4.71 3.96,1.45 7.95,2.89 11.84,4.4 4.14,1.63 8.17,3.26 12.24,4.96 3.81,1.51 7.67,3.08 11.42,4.65 4.03,1.69 7.93,3.51 11.89,5.27 3.64,1.64 7.34,3.21 10.92,4.84 3.94,1.88 7.77,3.76 11.64,5.65 3.45,1.7 6.95,3.33 10.35,5.02 3.84,1.95 7.55,3.96 11.31,5.97 3.29,1.76 6.63,3.45 9.86,5.21 3.72,2.07 7.31,4.21 10.94,6.35 3.14,1.75 6.33,3.57 9.4,5.39 3.64,2.2 7.15,4.46 10.71,6.73 2.93,1.82 5.92,3.64 8.79,5.52 3.58,2.33 7.03,4.77 10.53,7.16 2.71,1.89 5.49,3.71 8.14,5.59 3.54,2.51 6.93,5.15 10.37,7.72 2.48,1.89 5.04,3.71 7.48,5.59 3.55,2.77 6.95,5.59 10.39,8.42 2.19,1.82 4.47,3.58 6.62,5.4 3.73,3.14 7.31,6.41 10.9,9.67 1.75,1.57 3.57,3.08 5.28,4.65 5.26,4.9 10.37,9.86 15.34,14.88 37.72,38.25 67.63,82.08 90.14,131.56 25.33,55.71 41.21,118.63 47.61,189.6 3.93,43.64 4.37,90.24 1.25,139.92 -11.48,183.18 -67.55,375.59 -117.02,545.39 -9.71,33.4 -18.88,64.8 -27.52,95.5 -19.11,68 -30.28,132.9 -33.52,194.3 -4.14,79 4.84,152.2 26.97,219.1 13.71,41.5 32.29,80.2 55.62,116 38.88,59.6 90.97,111.3 155.79,154.3 5.29,3.5 10.66,6.9 16.11,10.3 169.12,104.8 418.45,148.4 688.13,119.9 268.46,-28.4 519.15,-121.9 687.77,-256.5 164.66,-131.3 238.19,-291.7 213.89,-460.1 -1.69,-11.9 -3.89,-23.8 -6.59,-35.8 -3.71,-16.2 -8.17,-32.5 -13.63,-48.8 -2.13,-6.4 -4.4,-12.8 -6.84,-19.2 -33.48,-88.5 -62.36,-172 -86.67,-250.8 -92.31,-299.51 -118.63,-530.05 -79.13,-696.09 16.65,-69.95 44.91,-128.42 84.85,-175.77 0.12,-0.19 0.18,-0.31 0.31,-0.44 3.71,-4.33 7.54,-8.6 11.43,-12.81 1.32,-1.45 2.7,-2.83 4.08,-4.21 2.77,-2.89 5.53,-5.71 8.42,-8.54 1.57,-1.57 3.26,-3.08 4.9,-4.65 2.76,-2.57 5.52,-5.08 8.35,-7.6 1.69,-1.5 3.45,-3.01 5.21,-4.52 2.95,-2.57 5.97,-5.02 9.04,-7.47 1.64,-1.32 3.27,-2.64 4.96,-3.96 3.96,-3.08 7.98,-6.03 12.06,-8.98 0.88,-0.63 1.63,-1.25 2.51,-1.82 4.9,-3.45 9.93,-6.84 15.01,-10.11 1.76,-1.13 3.58,-2.2 5.34,-3.33 3.46,-2.13 6.97,-4.27 10.49,-6.34 2.13,-1.26 4.33,-2.51 6.53,-3.77 3.33,-1.82 6.66,-3.7 10.05,-5.52 2.26,-1.2 4.58,-2.39 6.9,-3.58 3.46,-1.83 6.98,-3.52 10.56,-5.28 2.26,-1.07 4.52,-2.2 6.78,-3.27 4.21,-1.94 8.41,-3.83 12.68,-5.65 1.76,-0.75 3.46,-1.57 5.15,-2.32 5.91,-2.51 11.87,-4.9 17.96,-7.22 2.2,-0.88 4.52,-1.7 6.79,-2.51 4.01,-1.51 8.1,-3.02 12.18,-4.46 2.7,-0.95 5.46,-1.82 8.23,-2.77 3.76,-1.25 7.59,-2.51 11.43,-3.7 2.88,-0.94 5.77,-1.82 8.66,-2.7 3.9,-1.13 7.85,-2.26 11.81,-3.39 2.89,-0.82 5.71,-1.64 8.6,-2.45 4.46,-1.2 8.98,-2.33 13.5,-3.46 2.45,-0.62 4.9,-1.25 7.41,-1.88 6.78,-1.63 13.69,-3.2 20.66,-4.71 2.52,-0.57 5.09,-1.07 7.6,-1.57 4.78,-1.01 9.55,-1.95 14.38,-2.89 3.14,-0.56 6.28,-1.13 9.42,-1.69 4.4,-0.82 8.8,-1.57 13.19,-2.33 3.27,-0.56 6.6,-1.07 9.92,-1.63 4.46,-0.69 8.98,-1.38 13.57,-2.01 3.2,-0.5 6.47,-0.94 9.73,-1.38 5.03,-0.69 10.18,-1.32 15.26,-1.95 2.83,-0.38 5.59,-0.75 8.42,-1.07 7.79,-0.88 15.7,-1.76 23.67,-2.51 2.14,-0.19 4.4,-0.38 6.6,-0.56 6.03,-0.57 12.06,-1.13 18.21,-1.64 3.14,-0.25 6.41,-0.44 9.61,-0.69 5.21,-0.37 10.48,-0.75 15.82,-1.07 3.39,-0.25 6.85,-0.43 10.24,-0.62 5.34,-0.25 10.74,-0.57 16.08,-0.82 3.32,-0.13 6.65,-0.31 10.04,-0.44 5.97,-0.25 12,-0.44 18.09,-0.63 2.76,-0.06 5.46,-0.19 8.29,-0.25 8.85,-0.19 17.77,-0.38 26.81,-0.5 0.76,0 1.51,0 2.27,0 8.16,-0.13 16.39,-0.13 24.61,-0.13 8.98,0 18.03,0.13 27.2,0.25 1.82,0 3.64,0 5.46,0 10.8,0.19 21.73,0.44 32.72,0.76 4.14,0.12 8.29,0.31 12.43,0.44 7.03,0.25 14.13,0.5 21.29,0.75 4.9,0.25 9.8,0.5 14.76,0.69 6.47,0.32 13,0.63 19.59,1.01 5.21,0.25 10.43,0.56 15.7,0.88 6.41,0.37 12.81,0.75 19.28,1.19 5.34,0.38 10.74,0.69 16.14,1.07 6.59,0.5 13.13,0.94 19.78,1.44 5.34,0.44 10.62,0.82 16.02,1.26 7.28,0.56 14.63,1.19 21.97,1.82 4.78,0.44 9.49,0.82 14.26,1.25 11.56,1.01 23.17,2.14 34.86,3.27 5.77,0.57 11.61,1.19 17.39,1.76 6.59,0.69 13.12,1.38 19.72,2.07 6.28,0.63 12.56,1.38 18.9,2.07 6.22,0.69 12.44,1.39 18.65,2.08 6.53,0.75 13.07,1.5 19.6,2.32 6.15,0.69 12.37,1.44 18.59,2.2 6.59,0.81 13.18,1.63 19.84,2.45 6.22,0.81 12.5,1.63 18.78,2.45 6.72,0.81 13.37,1.69 20.09,2.57 6.34,0.82 12.75,1.7 19.09,2.58 6.72,0.94 13.44,1.82 20.22,2.76 12.19,1.69 24.5,3.39 36.87,5.21 7.09,1.01 14.19,2.07 21.29,3.08 6.28,0.94 12.56,1.88 18.84,2.82 7.22,1.07 14.51,2.2 21.79,3.27 6.22,0.94 12.5,1.95 18.78,2.89 7.28,1.13 14.63,2.26 21.91,3.45 6.41,0.94 12.75,2.01 19.16,3.02 7.28,1.13 14.63,2.32 21.98,3.51 6.47,1.07 12.93,2.08 19.4,3.14 7.41,1.2 14.76,2.45 22.17,3.65 6.59,1.13 13.19,2.19 19.84,3.32 7.29,1.26 14.64,2.45 21.98,3.71 7.67,1.32 15.39,2.64 23.12,3.95 12.68,2.2 25.37,4.4 38.18,6.6 6.97,1.25 13.94,2.45 20.91,3.64 7.41,1.32 14.82,2.64 22.23,3.96 6.97,1.25 13.94,2.51 20.97,3.77 7.42,1.32 14.82,2.63 22.3,4.01 7.16,1.26 14.32,2.58 21.54,3.9 7.28,1.32 14.57,2.64 21.85,3.95 7.48,1.39 14.89,2.77 22.36,4.09 7.22,1.38 14.44,2.7 21.66,4.02 7.79,1.44 15.58,2.88 23.37,4.33 6.9,1.32 13.81,2.58 20.72,3.89 11.24,2.08 22.48,4.21 33.72,6.35 8.48,1.57 17.02,3.2 25.56,4.77 9.42,1.82 18.78,3.58 28.26,5.4 6.6,1.26 13.25,2.51 19.91,3.77 8.54,1.63 17.08,3.26 25.68,4.9 6.98,1.32 13.88,2.7 20.85,4.01 8.54,1.64 17.02,3.27 25.56,4.9 6.53,1.26 13.07,2.52 19.53,3.77 9.74,1.89 19.41,3.77 29.14,5.65 5.59,1.07 11.12,2.14 16.65,3.21 11.24,2.13 22.48,4.33 33.78,6.53 4.08,0.75 8.23,1.57 12.37,2.38 15.26,2.95 30.52,5.91 45.85,8.86 24.8,4.77 49.67,9.61 74.66,14.44 9.11,1.76 18.34,3.52 27.45,5.34 16.77,3.2 33.47,6.47 50.3,9.67 10.74,2.07 21.48,4.15 32.22,6.22 15.26,2.89 30.58,5.84 45.9,8.79 11.43,2.14 22.86,4.33 34.36,6.53 14.88,2.83 29.76,5.65 44.71,8.48 11.68,2.2 23.42,4.4 35.17,6.59 14.81,2.83 29.64,5.59 44.52,8.36 11.81,2.19 23.67,4.45 35.54,6.65 15.08,2.77 30.15,5.53 45.28,8.35 11.68,2.14 23.3,4.28 34.92,6.35 15.82,2.89 31.65,5.78 47.54,8.6 11.05,2.01 22.1,4.02 33.22,5.97 2.89,0.5 5.78,1.06 8.73,1.57 -7.48,21.85 -14.76,43.52 -22.05,65.12 -1.31,3.83 -2.57,7.6 -3.89,11.49 -5.9,17.52 -11.81,35.11 -17.65,52.5 -2.38,7.1 -4.71,14.07 -7.09,21.17 -4.65,13.94 -9.3,27.94 -13.94,41.76 -3.14,9.48 -6.22,18.77 -9.3,28.19 -3.76,11.37 -7.6,22.8 -11.3,34.04 -3.39,10.24 -6.72,20.35 -10.05,30.52 -3.39,10.36 -6.84,20.79 -10.17,31.09 -3.46,10.42 -6.78,20.78 -10.18,31.15 -3.2,9.92 -6.47,19.84 -9.61,29.64 -3.39,10.42 -6.71,20.72 -10.04,31.02 -3.14,9.67 -6.28,19.4 -9.36,29.08 -3.39,10.42 -6.65,20.72 -9.98,31.08 -2.95,9.36 -5.97,18.78 -8.92,28.07 -3.39,10.74 -6.78,21.36 -10.11,31.97 -2.76,8.79 -5.59,17.58 -8.29,26.31 -3.39,10.74 -6.72,21.35 -10.05,31.97 -2.64,8.6 -5.4,17.31 -8.04,25.81 -3.26,10.6 -6.53,21.1 -9.73,31.6 -2.64,8.4 -5.21,16.8 -7.79,25.2 -3.27,10.6 -6.47,21.2 -9.67,31.7 -2.45,8.1 -4.96,16.2 -7.41,24.3 -3.2,10.6 -6.34,21.1 -9.48,31.6 -2.39,7.9 -4.78,15.9 -7.1,23.6 -3.14,10.6 -6.22,21 -9.29,31.5 -2.26,7.7 -4.59,15.4 -6.79,23.1 -3.07,10.3 -6.02,20.6 -8.98,30.8 -2.26,7.7 -4.52,15.4 -6.72,23 -2.95,10.2 -5.84,20.3 -8.73,30.4 -2.13,7.5 -4.27,15 -6.34,22.4 -2.89,10.2 -5.71,20.3 -8.54,30.4 -2.07,7.3 -4.08,14.5 -6.09,21.7 -2.76,10 -5.53,19.9 -8.23,29.8 -2.01,7.3 -3.95,14.5 -5.9,21.6 -2.7,9.8 -5.28,19.6 -7.91,29.2 -1.89,7.2 -3.83,14.3 -5.72,21.4 -2.57,9.7 -5.08,19.3 -7.6,28.9 -1.82,6.9 -3.7,13.9 -5.46,20.8 -2.51,9.6 -4.96,19.1 -7.35,28.6 -1.75,6.8 -3.51,13.6 -5.21,20.3 -2.39,9.5 -4.71,18.8 -7.1,28.2 -1.63,6.7 -3.32,13.4 -4.96,20 -2.26,9.3 -4.46,18.5 -6.72,27.7 -1.57,6.6 -3.2,13.1 -4.77,19.7 -2.14,9.1 -4.27,18.1 -6.41,27.2 -1.5,6.4 -3.01,12.9 -4.52,19.4 -2.07,8.9 -4.08,17.8 -6.09,26.7 -1.44,6.4 -2.89,12.7 -4.27,19.1 -1.94,8.7 -3.89,17.5 -5.78,26.1 -1.32,6.3 -2.7,12.6 -4.01,18.8 -1.89,8.7 -3.65,17.2 -5.47,25.8 -1.26,6.1 -2.57,12.3 -3.83,18.4 -1.69,8.4 -3.39,16.9 -5.09,25.3 -1.19,6 -2.38,12.1 -3.58,18.1 -1.63,8.3 -3.2,16.5 -4.77,24.7 -1.13,6 -2.26,11.9 -3.33,17.8 -1.5,8.2 -2.95,16.3 -4.39,24.3 -1.07,5.9 -2.07,11.7 -3.08,17.5 -1.45,8 -2.76,16 -4.08,23.8 -1.01,5.8 -1.95,11.5 -2.89,17.2 -1.26,7.8 -2.51,15.6 -3.71,23.2 -0.87,5.7 -1.76,11.3 -2.57,16.9 -1.19,7.7 -2.33,15.3 -3.39,22.8 -0.82,5.6 -1.57,11.1 -2.33,16.6 -1.06,7.5 -2.07,14.9 -3.01,22.2 -0.75,5.5 -1.45,11 -2.07,16.4 -0.95,7.3 -1.82,14.5 -2.7,21.7 -0.63,5.4 -1.2,10.7 -1.82,16 -0.82,7.1 -1.57,14.2 -2.26,21.2 -0.57,5.3 -1.07,10.5 -1.57,15.7 -0.7,7 -1.32,13.9 -1.95,20.8 -0.44,5.1 -0.88,10.3 -1.32,15.4 -0.5,6.7 -1.07,13.5 -1.51,20.2 -0.38,5.1 -0.69,10.1 -1.06,15.1 -0.38,6.6 -0.82,13.1 -1.2,19.7 -0.25,4.9 -0.5,9.9 -0.69,14.8 -0.31,6.4 -0.63,12.8 -0.82,19.1 -0.18,4.9 -0.37,9.8 -0.5,14.6 -0.19,6.2 -0.31,12.4 -0.44,18.6 -0.06,4.8 -0.12,9.5 -0.19,14.2 0,6.1 -0.06,12.2 -0.06,18.1 0,4.7 0.06,9.4 0.13,14 0.06,5.9 0.19,11.8 0.31,17.6 0.13,4.6 0.25,9.1 0.44,13.7 0.19,5.7 0.38,11.4 0.63,17 0.25,4.5 0.5,9 0.75,13.4 0.32,5.5 0.63,11.1 1.01,16.5 0.31,4.4 0.69,8.8 1.06,13.2 0.44,5.3 0.88,10.6 1.45,15.8 0.37,4.4 0.88,8.7 1.38,13 0.56,5.1 1.13,10.3 1.76,15.4 0.5,4.2 1.13,8.3 1.69,12.5 0.7,5 1.39,10 2.14,14.9 0.69,4.1 1.38,8.2 2.07,12.3 0.82,4.8 1.64,9.6 2.51,14.3 0.76,4.1 1.57,8 2.39,12 0.94,4.6 1.88,9.3 2.89,13.8 0.88,3.9 1.82,7.8 2.76,11.7 1.07,4.5 2.08,8.9 3.21,13.3 1,3.8 2.13,7.6 3.14,11.4 1.19,4.3 2.38,8.5 3.58,12.7 1.13,3.8 2.38,7.5 3.57,11.2 1.26,4 2.58,8.1 3.9,12.2 1.25,3.6 2.63,7.2 3.95,10.8 1.39,3.9 2.77,7.8 4.28,11.6 1.38,3.6 2.88,7.1 4.33,10.6 1.51,3.8 3.01,7.5 4.58,11.1 1.57,3.5 3.21,6.9 4.78,10.4 1.63,3.5 3.26,7 4.96,10.4 1.69,3.4 3.45,6.8 5.21,10.1 1.76,3.3 3.45,6.7 5.21,9.9 1.89,3.4 3.83,6.6 5.72,9.8 1.82,3.2 3.64,6.4 5.52,9.4 2.01,3.3 4.15,6.4 6.22,9.6 1.95,2.9 3.83,5.9 5.78,8.8 2.2,3.2 4.52,6.3 6.84,9.3 1.95,2.7 3.89,5.6 5.97,8.2 2.45,3.1 4.96,6.2 7.53,9.3 2.01,2.4 3.96,4.9 6.03,7.3 2.77,3.2 5.59,6.3 8.48,9.5 1.95,2.1 3.83,4.3 5.84,6.4 3.27,3.4 6.66,6.7 10.05,9.9 1.76,1.7 3.39,3.4 5.15,5.1 5.21,4.9 10.49,9.6 15.95,14.2 18.71,15.7 38.75,29.5 60.22,41.5 8.54,4.9 17.4,9.3 26.38,13.6 257.23,120.2 696.32,1 1365.29,-367.9 16.8,-9.2 33.5,-17.4 50.1,-24.5 144,-61.7 280.7,-42.7 407.7,56.7 14.7,11.4 29.2,24 43.7,37.5 4.9,4.7 9.8,9.4 14.6,14.3 9.8,9.8 19.3,20 28.8,30.7 4.7,5.3 9.4,10.8 14.1,16.3 130.7,155.6 235.3,396.9 285.9,664.8 14.4,76.5 24,152.6 28.7,226.7 1.2,18.5 2,36.9 2.6,55.2 0.6,18.2 0.9,36.4 0.8,54.3 -0.2,179.3 -30.1,341.4 -88.2,462.7 -13.9,29 -29.2,55.5 -45.9,79.4 -92.3,132.9 -226.8,188 -400.9,164.1 -59.7,-8.3 -117.3,-15.8 -173.2,-22.7 -346.2,-42.8 -618.7,-60.3 -837.83,-53.7 -47.1,1.5 -91.75,4 -134.14,7.7 -192.23,16.5 -343.95,55.5 -462.58,120.1 -29.65,16.1 -57.21,33.9 -82.84,53.3 -10.23,7.7 -20.16,15.7 -29.76,24 -24.12,20.7 -46.29,43.1 -66.63,67.1 -20.54,24.3 -39.13,50.2 -55.77,77.8 -8.35,13.8 -16.26,28 -23.61,42.7 -3.71,7.3 -7.29,14.8 -10.74,22.4 -86.47,189.3 -98.97,450.8 -42.2,818.7 2.13,13.7 4.33,27.6 6.65,41.6 0.7,4.4 1.51,9 2.27,13.5 1.63,9.6 3.2,19.2 4.9,28.9 0.94,5.5 2,11 2.95,16.5 1.57,8.9 3.14,17.7 4.83,26.7 1.07,6 2.26,12.1 3.39,18.2 1.64,8.5 3.21,17 4.84,25.7 1.25,6.4 2.57,12.9 3.83,19.3 1.63,8.5 3.33,16.9 5.02,25.4 1.32,6.7 2.77,13.4 4.08,20.1 1.76,8.5 3.46,16.9 5.28,25.4 1.45,6.9 2.95,13.9 4.4,20.8 1.82,8.5 3.58,16.9 5.46,25.5 1.57,7.1 3.14,14.3 4.71,21.5 1.88,8.5 3.77,17 5.65,25.5 1.64,7.3 3.33,14.7 5.03,22.1 1.94,8.6 3.89,17.2 5.9,25.9 1.7,7.4 3.45,14.9 5.21,22.4 2.07,8.7 4.08,17.4 6.16,26.2 1.82,7.7 3.7,15.3 5.52,23 2.14,8.8 4.27,17.7 6.41,26.5 1.88,7.8 3.77,15.6 5.71,23.4 2.2,8.9 4.46,17.9 6.66,27 2.01,7.8 3.96,15.7 5.96,23.7 2.33,9.1 4.59,18.2 6.98,27.4 2.01,8 4.08,16 6.15,24.1 2.39,9.2 4.77,18.5 7.22,27.9 2.07,8.1 4.21,16.3 6.34,24.5 2.45,9.3 4.97,18.7 7.41,28.1 2.2,8.3 4.46,16.6 6.66,25 2.51,9.5 5.09,19.1 7.72,28.7 2.27,8.4 4.46,16.7 6.79,25.2 2.63,9.7 5.27,19.5 7.97,29.3 2.33,8.4 4.65,16.9 6.97,25.4 2.77,9.9 5.47,19.9 8.23,29.8 2.39,8.6 4.77,17.2 7.22,25.8 2.83,10.1 5.66,20.3 8.54,30.5 2.39,8.6 4.84,17.2 7.29,25.8 2.95,10.4 5.9,20.9 8.92,31.4 2.44,8.6 4.89,17.2 7.34,25.8 3.08,10.7 6.16,21.4 9.3,32.2 2.45,8.6 4.96,17.2 7.47,25.9 3.14,11 6.41,22.1 9.67,33.3 2.45,8.5 4.9,16.9 7.41,25.5 3.33,11.3 6.72,22.8 10.11,34.3 2.51,8.5 4.97,17 7.54,25.6 3.45,11.7 7.03,23.7 10.55,35.5 2.45,8.3 4.9,16.6 7.35,24.9 3.83,12.7 7.66,25.6 11.49,38.4 2.32,7.7 4.58,15.3 6.91,23 4.39,14.5 8.79,29.2 13.25,43.9 1.82,6.1 3.64,12.1 5.52,18.3 12.69,42 25.75,84.6 39,127.9 0.51,1.7 1.07,3.5 1.57,5.2 6.09,19.8 12.25,39.8 18.46,59.9 1.57,5.2 3.27,10.5 4.9,15.8 5.09,16.6 10.24,33.1 15.39,49.9 2.26,7.1 4.46,14.3 6.72,21.4 4.08,13.3 8.23,26.5 12.37,39.9 H 3697.8" /></g><g
         transform="scale(1.5991)"
         id="g853"><path
           inkscape:connector-curvature="0"
           id="path855"
           style="fill:#ed634f;fill-opacity:1;fill-rule:nonzero;stroke:none"
           d="m 9507.76,9398.45 c 10.5,1.94 21.01,3.81 31.39,5.75 13.51,2.44 26.95,4.88 40.4,7.32 10.32,1.87 20.7,3.75 31.02,5.56 13.44,2.44 26.82,4.82 40.21,7.19 9.94,1.76 19.95,3.51 29.89,5.26 13.82,2.44 27.51,4.81 41.27,7.13 9.26,1.62 18.51,3.25 27.7,4.81 17.95,3.07 35.78,6.07 53.47,9.07 10.45,1.69 20.83,3.44 31.21,5.13 15.88,2.69 31.83,5.31 47.52,7.88 9.82,1.56 19.52,3.12 29.33,4.69 11.95,1.94 24.02,3.81 35.9,5.69 10.44,1.69 20.76,3.31 31.14,4.88 11.07,1.75 22.09,3.44 33.19,5.12 10.5,1.63 21,3.19 31.3,4.82 10.7,1.56 21.4,3.19 31.9,4.75 10.5,1.56 21,3.13 31.4,4.63 10.4,1.5 20.6,3 30.9,4.44 10.4,1.5 20.8,3 31.1,4.44 10.1,1.44 20.1,2.81 30.1,4.19 10.3,1.44 20.6,2.88 30.8,4.25 10,1.38 19.8,2.63 29.7,4 10,1.32 20.1,2.63 30,3.94 10.4,1.38 20.5,2.63 30.7,3.94 17.9,2.25 35.6,4.44 53.1,6.63 9.9,1.19 19.8,2.44 29.5,3.57 9.9,1.18 19.6,2.31 29.4,3.44 9.1,1.06 18.2,2.12 27.2,3.12 9.8,1.13 19.5,2.19 29.1,3.25 9,0.94 17.8,1.94 26.7,2.88 9.6,1 19.1,2 28.6,3 8.7,0.88 17.4,1.82 26.1,2.69 9.4,0.94 18.8,1.88 28.1,2.75 8.6,0.82 17.2,1.63 25.7,2.44 9.2,0.88 18.3,1.75 27.5,2.57 8.5,0.75 17,1.5 25.4,2.18 9,0.82 17.9,1.57 26.7,2.32 8.7,0.69 17.2,1.37 25.7,2.06 8.5,0.69 17.1,1.38 25.5,2 9.4,0.75 18.7,1.38 28,2.07 12.8,0.87 25.4,1.75 37.9,2.56 10.6,0.69 21.2,1.38 31.6,2.06 7.5,0.44 15,0.82 22.5,1.25 8.7,0.51 17.4,1.01 26,1.44 7.6,0.38 15.2,0.75 22.8,1.13 8.3,0.37 16.6,0.81 24.9,1.19 7.5,0.31 14.8,0.56 22.3,0.87 8.2,0.32 16.4,0.63 24.5,0.94 7.2,0.25 14.4,0.44 21.6,0.69 8.2,0.25 16.4,0.44 24.5,0.69 6.9,0.18 13.8,0.31 20.7,0.5 8.3,0.12 16.5,0.25 24.7,0.37 6.5,0.13 13.1,0.25 19.6,0.31 8.6,0.07 17.3,0.13 26,0.19 5.7,0 11.5,0.07 17.2,0.07 1,0 2,0 2.9,0 12.1,0 24,-0.07 35.8,-0.13 3.3,-0.06 6.5,-0.13 9.8,-0.13 10.2,-0.12 20.3,-0.31 30.3,-0.5 3.8,-0.06 7.5,-0.12 11.3,-0.25 12.7,-0.25 25.5,-0.62 38,-1 75.3,-2.56 145.6,-7.56 211,-15.07 21.8,-2.5 43,-5.25 63.7,-8.31 31,-4.57 60.9,-9.76 89.5,-15.51 200.3,-40.71 341.3,-112 427.2,-215.25 100.8,-121.19 114.5,-269.96 88,-426.61 -1.5,-9.51 -3.3,-19.01 -5.2,-28.58 -2.8,-14.26 -6,-28.64 -9.3,-43.09 -3.5,-14.38 -7.1,-28.89 -11,-43.34 -2.7,-9.62 -5.4,-19.32 -8.2,-29.01 -29.5,-101.56 -69.5,-203.86 -107.7,-301.92 -9.4,-23.95 -18.5,-47.4 -27.4,-70.54 -20,-51.97 -38.6,-101.99 -54.1,-150.08 -32.6,-101.12 7.5,-189.55 122.7,-270.22 5.7,-4 11.6,-7.94 17.6,-11.81 196.7,-128.2 529.3,-194.05 844.9,-193.8 181.8,0.19 357.9,22.26 499.4,66.97 7.4,2.32 14.8,4.76 22,7.26 14.5,4.94 28.6,10.13 42.3,15.57 13.7,5.5 26.8,11.19 39.6,17.13 25.5,11.95 49.2,24.89 70.6,38.84 10.8,7 21,14.19 30.6,21.7 9.7,7.5 18.7,15.19 27,23.07 5.6,5.26 10.8,10.57 15.8,16.01 67.1,72.98 80.1,160.65 40,266.46 -7.5,19.95 -14.8,39.71 -21.9,59.29 -66.3,182.72 -112.4,347.57 -138.8,495.34 -4.2,23.38 -7.8,46.33 -11,68.78 -0.7,4.57 -1.3,9.07 -1.9,13.57 -5.8,43.53 -9.7,85.43 -11.6,125.76 -11.7,237.95 42.7,420.11 163.2,550.25 6.3,6.88 12.9,13.57 19.5,20.07 2,1.88 4,3.69 6,5.57 4.8,4.56 9.6,9.06 14.5,13.44 2.7,2.38 5.4,4.57 8.1,6.82 4.4,3.75 8.8,7.57 13.4,11.25 3,2.38 6.1,4.69 9.3,7.07 4.3,3.32 8.7,6.75 13.1,9.95 3.3,2.37 6.7,4.69 10.1,7 4.4,3.06 8.7,6.13 13.3,9.07 3.5,2.31 7,4.5 10.6,6.75 4.6,2.81 9,5.69 13.6,8.38 3.7,2.19 7.6,4.25 11.3,6.38 4.6,2.62 9.2,5.31 13.9,7.81 3.9,2.07 7.9,4.01 11.7,6.01 4.8,2.44 9.5,4.94 14.4,7.25 4,1.94 8.1,3.75 12.2,5.63 4.9,2.25 9.8,4.56 14.7,6.69 4.2,1.82 8.5,3.5 12.7,5.25 5,2.13 10,4.19 15.1,6.19 4.4,1.69 8.8,3.26 13.2,4.88 5.2,1.94 10.3,3.82 15.5,5.69 4.5,1.5 9,3.01 13.6,4.44 5.3,1.82 10.6,3.57 16,5.19 4.5,1.44 9.2,2.76 13.8,4.13 5.5,1.63 11,3.19 16.5,4.69 4.7,1.31 9.5,2.5 14.3,3.75 5.6,1.44 11.2,2.88 16.9,4.26 4.8,1.12 9.7,2.25 14.6,3.31 5.7,1.31 11.5,2.63 17.4,3.82 4.9,1.06 9.8,2 14.8,2.93 6,1.19 11.9,2.32 17.9,3.38 5,0.94 10.2,1.75 15.2,2.63 6.1,1 12.2,2 18.4,2.94 5.1,0.75 10.3,1.5 15.4,2.19 6.3,0.87 12.6,1.75 18.9,2.56 5.2,0.63 10.5,1.25 15.7,1.81 6.4,0.75 12.9,1.44 19.4,2.13 5.3,0.56 10.6,1 16,1.5 6.5,0.63 13.1,1.19 19.7,1.69 5.5,0.44 10.8,0.81 16.3,1.19 6.7,0.5 13.5,0.87 20.3,1.31 5.4,0.31 10.9,0.56 16.5,0.81 6.8,0.32 13.8,0.63 20.8,0.88 5.5,0.19 11,0.37 16.6,0.56 7.1,0.19 14.1,0.31 21.3,0.44 5.6,0.12 11.2,0.19 16.9,0.25 7.2,0.06 14.5,0.06 21.7,0.06 5.7,0 11.4,0 17.1,-0.06 7.4,-0.06 14.8,-0.19 22.3,-0.31 5.7,-0.07 11.4,-0.19 17.2,-0.38 7.5,-0.19 15.1,-0.37 22.8,-0.69 5.7,-0.18 11.5,-0.37 17.3,-0.62 7.7,-0.31 15.5,-0.69 23.3,-1.06 5.8,-0.32 11.6,-0.57 17.5,-0.94 7.9,-0.44 15.8,-0.94 23.8,-1.44 5.8,-0.38 11.6,-0.75 17.5,-1.19 8.1,-0.56 16.3,-1.19 24.5,-1.81 5.8,-0.44 11.7,-0.94 17.5,-1.44 8.3,-0.69 16.7,-1.44 25,-2.19 5.9,-0.56 11.7,-1.06 17.6,-1.63 8.5,-0.81 17,-1.69 25.5,-2.62 5.9,-0.57 11.8,-1.19 17.7,-1.82 8.7,-0.93 17.4,-1.94 26.1,-3 5.9,-0.69 11.7,-1.31 17.6,-2.06 8.9,-1.07 17.9,-2.19 26.8,-3.32 5.8,-0.75 11.6,-1.5 17.5,-2.25 9.1,-1.18 18.3,-2.44 27.5,-3.75 5.7,-0.81 11.5,-1.56 17.4,-2.38 9.3,-1.37 18.7,-2.75 28.2,-4.12 5.6,-0.88 11.3,-1.69 17.1,-2.57 9.6,-1.44 19.3,-3 29,-4.5 5.6,-0.94 11.3,-1.81 16.9,-2.69 9.9,-1.62 19.9,-3.31 29.9,-4.94 5.5,-0.94 10.9,-1.81 16.4,-2.75 10.3,-1.81 20.7,-3.63 31.1,-5.44 5.3,-0.94 10.5,-1.81 15.8,-2.82 10.7,-1.87 21.5,-3.87 32.2,-5.87 5.1,-0.94 10.1,-1.82 15.2,-2.82 11.2,-2.06 22.5,-4.25 33.7,-6.44 4.7,-0.87 9.4,-1.75 14,-2.69 12,-2.31 23.9,-4.69 35.9,-7.13 4.2,-0.81 8.3,-1.62 12.4,-2.44 13,-2.62 26,-5.31 39,-8.06 3.2,-0.63 6.4,-1.32 9.7,-2 14.4,-3 28.9,-6.13 43.5,-9.26 1.9,-0.37 3.8,-0.75 5.6,-1.19 82.8,-17.88 167.4,-37.52 253.4,-58.59 1.5,-0.38 2.9,-0.75 4.4,-1.13 15.6,-3.81 31.1,-7.63 46.8,-11.57 3.9,-0.93 7.7,-1.94 11.5,-2.87 13.4,-3.38 26.7,-6.69 40.2,-10.13 4.9,-1.25 9.8,-2.5 14.7,-3.76 12.4,-3.19 24.8,-6.38 37.3,-9.56 5.5,-1.44 11.2,-2.94 16.8,-4.38 11.8,-3.06 23.6,-6.13 35.6,-9.26 6,-1.56 12,-3.18 18,-4.75 11.5,-3.06 22.9,-6.07 34.4,-9.13 6.5,-1.75 13,-3.44 19.4,-5.19 11.2,-3 22.4,-5.94 33.6,-9 6.8,-1.82 13.5,-3.63 20.3,-5.51 10.9,-2.94 21.8,-5.88 32.7,-8.88 7.1,-1.94 14.3,-3.88 21.4,-5.88 10.6,-2.87 21.3,-5.81 32,-8.75 7.4,-2.06 14.9,-4.13 22.2,-6.19 10.4,-2.88 20.8,-5.75 31.2,-8.63 7.8,-2.19 15.7,-4.38 23.5,-6.57 10.1,-2.81 20.1,-5.63 30.1,-8.44 8.1,-2.25 16.2,-4.57 24.2,-6.82 10,-2.81 19.9,-5.62 29.9,-8.44 8.3,-2.37 16.6,-4.75 24.8,-7.13 9.8,-2.75 19.5,-5.5 29.2,-8.25 8.6,-2.44 17.1,-4.94 25.7,-7.38 9.4,-2.69 18.9,-5.44 28.4,-8.19 9,-2.57 18,-5.13 27,-7.76 9.1,-2.62 18.3,-5.25 27.4,-7.94 9.2,-2.63 18.5,-5.32 27.8,-8.01 5.5,-1.62 10.9,-3.18 16.4,-4.81 v 5615.78 c 0,673.7 -548.1,1221.8 -1221.7,1221.8 H 9424.28 c -458.7,-1469.8 -625.79,-2230.5 -343.64,-2564 30.4,-35.9 66.29,-67.4 108.25,-94.5 9.38,-6 19.01,-11.8 28.89,-17.4 9.95,-5.6 20.2,-11 30.77,-16.2 100.18,-49.3 228.63,-79.8 390.66,-93.7 252.95,-21.8 593.09,-2.2 1067.69,61.4 15.3,2.1 30.7,4.2 46.3,6.3 133.2,18.4 251.1,-1.9 350.6,-60.2 85.2,-49.9 154.9,-126.5 207.3,-228 3.5,-6.8 7,-13.6 10.4,-20.6 6.5,-13.7 12.7,-27.7 18.6,-42.1 8.9,-21.6 17,-44 24.4,-67.2 64.4,-200.7 74.8,-458.1 28,-728.4 -1.7,-10.4 -3.7,-20.8 -5.6,-31.3 -63,-333.3 -200.5,-620.3 -377.2,-787.2 -189.3,-178.7 -415.9,-209.7 -638.3,-87.1 -21.2,11.7 -42.2,23.2 -63,34.4 -644.43,347.2 -1064.48,444.8 -1249.02,290 -139.14,-116.7 -168.34,-388.2 -89.3,-830.1 81.3,-454.2 271.53,-1045.89 450.94,-1573.25 4.76,0.88 9.45,1.75 14.2,2.63 10.38,2 20.63,3.87 30.96,5.81 13.94,2.63 27.82,5.19 41.58,7.76" /></g><g
         transform="scale(1.5991)"
         id="g857"><path
           inkscape:connector-curvature="0"
           id="path859"
           style="fill:#0e92d6;fill-opacity:1;fill-rule:nonzero;stroke:none"
           d="m 9471.18,9236.17 c 0.25,-0.69 0.44,-1.38 0.68,-2.06 4.01,-12.01 8.32,-25.02 12.89,-38.96 0.31,-0.82 0.56,-1.69 0.87,-2.57 1.25,-3.81 2.5,-7.69 3.82,-11.69 0.31,-0.94 0.62,-1.88 0.94,-2.88 1.37,-4.38 2.87,-8.82 4.31,-13.38 0.12,-0.44 0.31,-0.88 0.44,-1.31 3.31,-10.2 6.69,-20.83 10.19,-31.83 0.31,-1 0.69,-2.07 1,-3.07 1.38,-4.44 2.82,-8.94 4.25,-13.51 0.44,-1.25 0.82,-2.56 1.26,-3.87 1.43,-4.63 2.93,-9.32 4.43,-14.07 0.32,-1.07 0.63,-2.07 0.94,-3.07 3.69,-11.75 7.44,-23.82 11.32,-36.33 0.31,-1.06 0.63,-2.13 1,-3.19 1.56,-5.06 3.13,-10.13 4.69,-15.32 0.5,-1.63 1,-3.25 1.5,-4.94 1.5,-4.94 3.07,-9.94 4.57,-15.01 0.44,-1.44 0.87,-2.81 1.31,-4.31 1.81,-5.88 3.63,-11.88 5.44,-17.95 0.19,-0.63 0.38,-1.19 0.57,-1.82 2.06,-6.87 4.12,-13.88 6.25,-20.94 0.12,-0.44 0.31,-0.94 0.44,-1.44 1.87,-6.19 3.75,-12.51 5.62,-18.82 0.5,-1.82 1.07,-3.63 1.57,-5.45 1.56,-5.25 3.12,-10.5 4.62,-15.82 0.63,-1.94 1.19,-3.94 1.76,-5.94 1.68,-5.69 3.37,-11.44 5.06,-17.2 0.38,-1.5 0.81,-2.94 1.25,-4.37 4.19,-14.57 8.51,-29.46 12.82,-44.59 0.56,-2 1.13,-4.06 1.69,-6.07 1.62,-5.62 3.19,-11.32 4.81,-17.07 0.63,-2.13 1.26,-4.31 1.82,-6.5 1.69,-5.82 3.31,-11.7 4.94,-17.64 0.56,-2 1.13,-3.94 1.69,-5.94 4.37,-15.76 8.75,-31.7 13.13,-47.9 0.56,-1.87 1.06,-3.75 1.56,-5.69 1.69,-6.13 3.38,-12.32 5.01,-18.57 0.68,-2.5 1.37,-5.01 2.06,-7.57 1.56,-5.88 3.13,-11.82 4.75,-17.82 0.63,-2.38 1.25,-4.82 1.88,-7.19 1.94,-7.2 3.81,-14.39 5.75,-21.64 0.25,-1.13 0.56,-2.25 0.88,-3.38 2.19,-8.5 4.44,-17.07 6.69,-25.76 0.43,-1.57 0.81,-3.19 1.25,-4.82 1.75,-6.88 3.56,-13.88 5.31,-20.82 0.69,-2.57 1.32,-5.19 2.01,-7.75 1.56,-6.2 3.12,-12.39 4.69,-18.64 0.68,-2.69 1.37,-5.38 2.06,-8.07 1.69,-6.81 3.38,-13.63 5.13,-20.51 0.44,-1.94 0.94,-3.88 1.43,-5.82 2.19,-8.94 4.45,-17.94 6.63,-27.01 0.19,-0.81 0.38,-1.63 0.57,-2.44 2,-8.07 3.94,-16.13 5.88,-24.2 0.62,-2.69 1.31,-5.32 1.93,-7.94 1.51,-6.51 3.07,-12.95 4.63,-19.45 0.69,-2.94 1.38,-5.88 2.06,-8.82 1.57,-6.56 3.07,-13.13 4.63,-19.76 0.63,-2.63 1.25,-5.19 1.82,-7.82 4.25,-18.32 8.5,-36.83 12.69,-55.46 0.56,-2.63 1.19,-5.32 1.75,-8.01 1.5,-6.69 3,-13.38 4.5,-20.14 0.69,-3.12 1.38,-6.25 2.07,-9.38 1.44,-6.5 2.81,-13.06 4.25,-19.57 0.63,-3.06 1.31,-6.06 1.94,-9.13 1.69,-7.88 3.38,-15.76 5.06,-23.64 0.32,-1.56 0.69,-3.12 1,-4.69 2.01,-9.57 4.01,-19.13 6.01,-28.76 0.44,-2.26 0.94,-4.44 1.37,-6.7 1.51,-7.31 3.01,-14.63 4.51,-22.01 0.62,-3.19 1.25,-6.38 1.93,-9.56 1.32,-6.63 2.63,-13.26 3.95,-19.89 0.62,-3.25 1.25,-6.44 1.93,-9.7 1.38,-7.18 2.82,-14.44 4.19,-21.7 0.5,-2.5 1,-4.93 1.44,-7.44 1.88,-9.75 3.75,-19.51 5.57,-29.26 0.31,-1.63 0.62,-3.25 0.87,-4.88 1.5,-8.07 3,-16.13 4.51,-24.2 0.56,-3.25 1.18,-6.57 1.75,-9.82 1.25,-6.63 2.44,-13.32 3.62,-19.95 0.56,-3.44 1.19,-6.88 1.82,-10.31 1.19,-6.89 2.37,-13.76 3.56,-20.64 0.56,-3.07 1.06,-6.07 1.57,-9.07 1.68,-9.88 3.37,-19.7 5,-29.58 12.57,-75.98 23.39,-149.89 32.33,-221.69 38.71,-311.11 42.9,-582.26 12.51,-808.2 -48.41,-359.26 -185.23,-607.71 -406.67,-738.41 -84.36,-49.84 -175.78,-69.6 -271.28,-69.67 -46.96,0 -94.93,4.82 -143.52,13.14 -12.19,2.06 -24.38,4.37 -36.64,6.88 -6.13,1.25 -12.26,2.56 -18.39,3.87 -12.25,2.76 -24.57,5.63 -36.89,8.7 -117.26,29.2 -237.26,74.16 -355.7,118.5 -57.91,21.64 -116.25,43.46 -174.29,63.41 -105.3,36.27 -209.42,66.16 -307.36,77.29 -7.25,0.81 -14.44,1.57 -21.63,2.19 -16.64,1.38 -33.14,2.32 -49.34,2.5 -34.02,0.44 -66.98,-1.94 -98.81,-7.75 -12.75,-2.32 -25.26,-5.19 -37.58,-8.63 -65.35,-18.2 -118.94,-47.15 -162.78,-82.8 -9.76,-7.94 -19.01,-16.19 -27.83,-24.76 -17.57,-17.07 -33.39,-35.33 -47.52,-54.41 -60.16,-80.92 -90.74,-176.41 -106,-259.58 -21.51,-117.13 -20.64,-252.14 1.13,-391.78 3.5,-22.01 7.44,-44.21 11.88,-66.41 14.94,-74.11 35.58,-148.84 61.78,-222.38 20.76,-58.28 44.27,-114.06 70.17,-166.59 6.5,-13.13 13.13,-26.02 19.88,-38.71 6.75,-12.76 13.63,-25.2 20.64,-37.46 70.22,-122.63 153.27,-222.37 241.2,-287.22 60.34,-44.46 120.69,-71.35 180.66,-80.61 3.25,-0.5 6.44,-0.94 9.63,-1.31 0.81,-0.13 1.56,-0.25 2.37,-0.32 63.98,-7.37 127.45,5.26 190.11,38.03 10.76,5.62 21.51,11.19 32.21,16.69 331.06,170.47 612.15,272.9 835.97,304.61 69.28,9.82 134.01,13.01 193.98,9.57 1.75,-0.06 3.5,-0.25 5.31,-0.31 10.14,-0.69 20.2,-1.51 30.08,-2.5 1.69,-0.19 3.38,-0.38 5.07,-0.57 9.82,-1.12 19.57,-2.37 29.2,-3.88 60.79,-9.38 115.94,-26.51 165.22,-51.34 0.81,-0.37 1.56,-0.75 2.38,-1.12 8.5,-4.32 16.82,-8.94 24.95,-13.7 0.56,-0.31 1.12,-0.62 1.69,-0.94 0.5,-0.31 1.06,-0.68 1.56,-1 8.13,-4.87 16.07,-9.94 23.83,-15.26 0.75,-0.5 1.5,-1.06 2.25,-1.56 11.63,-8.06 22.82,-16.63 33.64,-25.7 57.16,-48.09 102.62,-109.62 136.58,-185.17 11.25,-25.13 21.32,-51.84 30.01,-80.17 2.94,-9.38 5.69,-19.01 8.32,-28.76 49.97,-185.73 48.47,-434.37 -3.81,-750.05 -67.67,-408.35 -207.12,-855.85 -326.19,-1228.12 -7.94,-24.76 -15.82,-49.28 -23.51,-73.36 -3.5,-10.94 -7,-21.76 -10.44,-32.51 -0.19,-0.69 -0.38,-1.32 -0.63,-1.94 -6.81,-21.27 -13.51,-42.28 -20.13,-62.98 -0.51,-1.62 -1,-3.25 -1.57,-4.87 -6.38,-20.14 -12.69,-39.96 -18.88,-59.41 -0.5,-1.69 -1.07,-3.38 -1.57,-5.07 -6.13,-19.32 -12.07,-38.27 -17.82,-56.78 -0.5,-1.62 -1,-3.25 -1.56,-4.94 -2.82,-9.13 -5.63,-18.26 -8.44,-27.2 h 5618 c 673.6,0 1221.7,548.06 1221.7,1221.75 v 5656.47 c -1087.5,317.18 -2169.9,586.83 -2529.4,198.61 -28.6,-30.89 -52.5,-65.59 -71.8,-104.3 -42.5,-85.18 -62.5,-189.86 -61,-316.56 2.3,-202.86 62.5,-461.69 178.9,-769.3 66.4,-175.6 24.5,-328.25 -121.1,-441.44 -170.5,-132.57 -478.4,-202.36 -844.8,-191.42 -121.5,3.63 -239.4,16.01 -349.4,35.96 -10,1.82 -19.9,3.69 -29.8,5.63 -197.2,38.84 -367.1,102.56 -484.1,184.48 -156.7,109.75 -216.2,253.26 -167.6,403.97 20.6,63.79 45.6,129.2 72.3,197.8 3.8,9.82 7.7,19.7 11.6,29.58 109.8,281.28 223.4,572.13 72.7,753.36 -106.4,128.01 -343.3,199.11 -704,211.37 -423.2,14.32 -1032.7,-52.59 -1812.27,-199.05 2.19,-6.57 4.57,-13.57 7.07,-21.01 0.19,-0.5 0.37,-1.07 0.56,-1.63 1.07,-3.25 2.19,-6.56 3.32,-9.94" /></g><g
         transform="scale(1.08654)"
         id="g861"><path
           inkscape:connector-curvature="0"
           id="path863"
           style="fill:#04c4f2;fill-opacity:1;fill-rule:nonzero;stroke:none"
           d="m 14123.9,4749.39 c 17.6,60.28 34.9,120.93 51.9,181.77 84.7,304.45 159.9,614.8 208.7,909.31 98.7,596.02 68.2,1018.36 -90.5,1259.22 -29.5,44.64 -63.2,83.02 -101.3,115.14 -307.4,258.71 -929.3,146.15 -1848.3,-334.64 -245.1,-128.21 -503.7,-100.78 -748,79.33 -234.5,172.75 -445.5,486.96 -579,862.1 -133.2,374.3 -175.9,772.27 -117.3,1091.81 23.6,128.66 62.8,243.9 116.9,344.21 24.6,45.65 52.3,88.17 82.9,127.47 109.4,140.17 254.7,236.26 431.7,285.68 345.2,96.27 740.3,-51.63 1122.3,-194.66 423.1,-158.39 822.7,-307.94 1119.1,-132.99 640.1,377.9 597.6,1525.26 449.3,2421.16 -138.4,835.8 -393.8,1613.9 -473.2,1845 -306.2,-54.3 -605.5,-112.2 -895.6,-168.4 -100.5,-19.5 -199.5,-38.6 -296.9,-57.2 -681.7,-130.6 -1285.3,-235.8 -1766.3,-235.9 -440.9,0 -778.8,88.4 -979.62,326.7 -88.35,104.9 -145.69,233 -172.84,387.2 -16.2,92.6 -21.63,194.7 -16.29,306.9 1.75,37.6 4.7,76.3 8.93,115.9 29.27,278.3 117.8,610.2 269.02,1009.9 108.8,287.6 -59.18,500.2 -219.32,628 -191.16,152.5 -477.65,268.4 -784.68,320.4 -43.87,7.3 -88.15,13.5 -132.63,18.2 -368.19,39 -702.42,-20.3 -917,-162.7 -103.6,-68.7 -177.8,-154.4 -222.47,-256.6 -65.27,-149.4 -67.46,-334 -6.1,-552.2 12.43,-44.2 25.77,-90 39.87,-138.4 30.27,-103.9 62.81,-215.6 91.87,-331.3 4.46,-17.8 8.85,-35.7 13.14,-53.7 4.28,-17.9 8.46,-35.9 12.51,-54.1 10.14,-45.3 19.5,-91 27.75,-136.9 4.95,-27.5 9.5,-55.2 13.58,-82.9 53.07,-359.4 26.82,-722.9 -234.42,-987.9 -515.3,-522.5 -1811.39,-493.4 -3960.43,89.4 V 5318.26 c 0,-991.5 806.63,-1798.09 1798.11,-1798.09 h 8320.92 c 39.2,129.03 86.3,275.64 135.6,429.71 78.9,246.01 166.2,518.34 248.1,799.51" /></g><path
         inkscape:connector-curvature="0"
         id="path883"
         d="M 2379.685,4021.6938 V 25737.84"
         style="fill:none;stroke:#000000;stroke-width:150;stroke-linecap:butt;stroke-linejoin:miter;stroke-miterlimit:4;stroke-dasharray:none;stroke-opacity:1;marker-start:url(#marker1326);marker-end:url(#Arrow1Mend)" /><path
         style="fill:none;stroke:#000000;stroke-width:150;stroke-linecap:butt;stroke-linejoin:miter;stroke-miterlimit:4;stroke-dasharray:none;stroke-opacity:1;marker-start:url(#Arrow1Mstart);marker-end:url(#Arrow1Mend-3)"
         d="M 4414.7014,2261.9079 H 26130.847"
         id="path883-4"
         inkscape:connector-curvature="0" /><text
         transform="scale(1,-1)"
         id="text1224"
         y="-20227.654"
         x="8052.0542"
         style="font-size:2000px;line-height:1.25;font-family:Arial;-inkscape-font-specification:'Arial, Normal';stroke-width:7.5"
         xml:space="preserve"><tspan
           style="stroke-width:7.5"
           y="-20227.654"
           x="8052.0542"
           id="tspan1222"
           sodipodi:role="line">ED</tspan></text><text
         transform="scale(1,-1)"
         xml:space="preserve"
         style="font-size:2000px;line-height:1.25;font-family:Arial;-inkscape-font-specification:'Arial, Normal';stroke-width:7.5"
         x="18498.039"
         y="-20227.654"
         id="text1224-8"><tspan
           sodipodi:role="line"
           id="tspan1222-3"
           x="18498.039"
           y="-20227.654"
           style="stroke-width:7.5">MW</tspan></text><text
         transform="scale(1,-1)"
         id="text1224-8-1"
         y="-8467.0791"
         x="18784.66"
         style="font-size:2000px;line-height:1.25;font-family:Arial;-inkscape-font-specification:'Arial, Normal';stroke-width:7.5"
         xml:space="preserve"><tspan
           style="stroke-width:7.5"
           y="-8467.0791"
           x="18784.66"
           id="tspan1222-3-9"
           sodipodi:role="line">OTi</tspan></text><text
         transform="scale(1,-1)"
         xml:space="preserve"
         style="font-size:2000px;line-height:1.25;font-family:Arial;-inkscape-font-specification:'Arial, Normal';stroke-width:7.5"
         x="7627.7378"
         y="-8467.0791"
         id="text1224-8-1-0"><tspan
           sodipodi:role="line"
           id="tspan1222-3-9-5"
           x="7627.7378"
           y="-8467.0791"
           style="stroke-width:7.5">OTe</tspan></text><text
         transform="matrix(0,1,1,0,0,0)"
         id="text1426"
         y="2021.7365"
         x="8003.7158"
         style="font-style:normal;font-variant:normal;font-weight:bold;font-stretch:normal;font-size:1800px;line-height:1.25;font-family:Arial;-inkscape-font-specification:'Arial Bold';stroke-width:7.5"
         xml:space="preserve"><tspan
           style="font-style:normal;font-variant:normal;font-weight:bold;font-stretch:normal;font-size:1800px;font-family:Arial;-inkscape-font-specification:'Arial Bold';stroke-width:7.5"
           y="2021.7365"
           x="8003.7158"
           id="tspan1424"
           sodipodi:role="line">Goal-Relveance</tspan></text><text
         transform="scale(1,-1)"
         id="text1430"
         y="-26530.133"
         x="42.501953"
         style="font-size:1500px;line-height:1.25;font-family:Arial;-inkscape-font-specification:'Arial, Normal';stroke-width:7.5"
         xml:space="preserve"><tspan
           style="font-size:1500px;stroke-width:7.5"
           y="-26530.133"
           x="42.501953"
           id="tspan1428"
           sodipodi:role="line">Off-Task</tspan></text><text
         transform="scale(1,-1)"
         xml:space="preserve"
         style="font-size:1500px;line-height:1.25;font-family:Arial;-inkscape-font-specification:'Arial, Normal';stroke-width:7.5"
         x="-3.3101196"
         y="-2887.2107"
         id="text1430-8"><tspan
           id="tspan1428-7"
           x="-3.3101196"
           y="-2887.2107"
           style="font-size:1500px;stroke-width:7.5"
           sodipodi:role="line">On-Task</tspan></text><text
         xml:space="preserve"
         style="font-size:1800px;line-height:1.25;font-family:Arial;-inkscape-font-specification:'Arial Bold';stroke-width:7.5;font-weight:bold;font-style:normal;font-stretch:normal;font-variant:normal"
         x="11824.73"
         y="-656.82251"
         id="text1426-2"
         transform="scale(1,-1)"><tspan
           sodipodi:role="line"
           id="tspan1424-0"
           x="11824.73"
           y="-656.82251"
           style="font-size:1800px;stroke-width:7.5;-inkscape-font-specification:'Arial Bold';font-family:Arial;font-weight:bold;font-style:normal;font-stretch:normal;font-variant:normal">Direction</tspan></text><text
         transform="scale(1,-1)"
         id="text1430-8-4"
         y="-823.49957"
         x="23200.213"
         style="font-size:1500px;line-height:1.25;font-family:Arial;-inkscape-font-specification:'Arial, Normal';stroke-width:7.5"
         xml:space="preserve"><tspan
           style="font-size:1500px;stroke-width:7.5"
           y="-823.49957"
           x="23200.213"
           id="tspan1428-7-2"
           sodipodi:role="line">Internal</tspan></text><text
         transform="scale(1,-1)"
         xml:space="preserve"
         style="font-size:1500px;line-height:1.25;font-family:Arial;-inkscape-font-specification:'Arial, Normal';stroke-width:7.5"
         x="3287.448"
         y="-823.49976"
         id="text1430-8-4-1"><tspan
           sodipodi:role="line"
           id="tspan1428-7-2-5"
           x="3287.448"
           y="-823.49976"
           style="font-size:1500px;stroke-width:7.5">External</tspan></text></g></g></svg>
